# xmcd
#
# Track frame offsets:
#	183
#	16155
#	29773
#	46820
#	61348
#	72570
#	84578
#	96363
#	107808
#	119398
#
# Disc length: 1779 seconds
#
# Revision: 9
# Processed by: cddbd v1.5.2PL0 Copyright (c) Steve Scherf et al.
# Submitted via: audiograbber 1.83.01
#
DISCID=8706f10a
DTITLE=Statler Brothers, The - All American Country
DYEAR=1991
DGENRE=Country
TTITLE0=Remember Me
TTITLE1=Dynamite
TTITLE2=Everything You See In Your Dreams
TTITLE3=Who Do You Think You Are
TTITLE4=There's Still Times
TTITLE5=Put It On The Card
TTITLE6=If I'd Paid More Attention To You
TTITLE7=Jesus Is The Answer Everytime
TTITLE8=Fallin' In Love
TTITLE9=You've Been Like A Mother To Me
EXTD=
EXTT0=
EXTT1=
EXTT2=
EXTT3=
EXTT4=
EXTT5=
EXTT6=
EXTT7=
EXTT8=
EXTT9=
PLAYORDER=
